<svg xmlns="http://www.w3.org/2000/svg" width="1000" height="639" viewBox="0 0 1000 639"><g fill="#FC0C1A" fill-rule="evenodd"><path d="M44.824 240.53c43.884-8.747 62.367-7.108 67.113 16.788.848 4.265 1.268 10.838.84 15.364l2.553-.51c6.416-23.464 25.349-48.528 41.964-51.84 21.73-4.333 60.812 16.269 67.85 51.685 12.036 60.596-27.838 156.384-80.666 166.913-14.058 2.797-45.147-4.316-57.398-21.392C74.513 461.3 66.297 504.635 71.296 529.81c-43.88 8.748-65.686 6.002-70.18-16.62-10.425-52.483 55.916-211.214 43.708-272.66m764.81-83.388c12.036 60.596-27.838 156.377-80.665 166.91-14.058 2.8-45.147-4.313-57.398-21.388-12.567 43.757-20.787 87.101-15.784 112.272-43.88 8.748-65.686 5.998-70.18-16.62-10.43-52.483 55.916-211.215 43.708-272.66 43.88-8.748 62.367-7.11 67.113 16.788.848 4.264 1.268 10.837.84 15.359l2.552-.51c6.412-23.46 25.35-48.524 41.965-51.836 21.73-4.333 60.811 16.269 67.849 51.685zM147.947 272.203c1.346 2.404 2.856 5.661 3.61 9.517 5.61 28.706-18.696 101.343-48.673 120.342-3.431-19.8 11.802-109.756 45.063-129.859zm268.046-51.064c6.48 32.575-15.299 61.866-47.42 68.257-20.987 4.185-45.392 4.59-63.455-1.168-4.302 20.91-4.578 41.905-1.085 59.48a98.616 98.616 0 006.148 19.715c14.485-12.239 21.353-33.666 18.976-54.575 42.826-8.533 62.603-.883 66.095 16.69 5.455 27.434-18.3 64.694-49.138 70.83-44.11 8.792-95.04-16.712-106.63-75.005-12.272-61.72 28.302-130.852 89.54-143.048 47.11-9.381 80.92 8.395 86.97 38.824zm184.84-34.963c6.476 32.575-15.299 61.866-47.42 68.265-20.983 4.176-45.393 4.581-63.456-1.176-4.302 20.913-4.577 41.909-1.085 59.478a98.746 98.746 0 006.149 19.72c14.485-12.243 21.352-33.665 18.976-54.579 42.826-8.528 62.603-.883 66.095 16.69 5.455 27.434-18.3 64.697-49.139 70.834-44.11 8.787-95.039-16.712-106.63-75.01-12.272-61.718 28.298-130.85 89.54-143.045 47.11-9.381 80.92 8.395 86.97 38.823zM935.554 21.31c10.54 52.695-56.53 212.05-44.188 273.739-44.362 8.782-66.408 6.021-70.951-16.687-10.545-52.69 56.53-212.046 44.188-273.738 44.362-8.783 66.409-6.018 70.951 16.686zM732.366 156.13c-33.668 20.018-49.088 109.595-45.614 129.313 30.343-18.916 54.947-91.25 49.267-119.836-.762-3.84-2.291-7.088-3.653-9.477zm265.948 68.179c4.561 22.929-10.488 44.906-33.855 49.56-22.927 4.56-44.826-10.067-49.39-32.996-4.651-23.357 9.89-45.671 32.825-50.235 23.363-4.645 45.77 10.319 50.42 33.67zm-648.764-12.66c-18.425 14.808-30.947 34.679-38.331 55.756 1.795.086 3.51-.254 5.223-.595 21.84-4.348 38.821-30.903 35.239-48.903-.422-2.146-1.275-4.202-2.131-6.257zm184.84-34.962c-18.426 14.807-30.947 34.682-38.332 55.755 1.796.09 3.51-.254 5.223-.595 21.844-4.348 38.822-30.902 35.244-48.903-.43-2.141-1.279-4.201-2.136-6.257z"/><path fill-rule="nonzero" d="M638.978 476.329c44.914 0 81.324 36.41 81.324 81.324s-36.41 81.325-81.324 81.325h-267.21c-44.913 0-81.324-36.41-81.324-81.325 0-44.914 36.41-81.324 81.325-81.324h267.209zm-183.929 33.986h-75.154v94.676h76.513v-19.718h-51.643v-17.828l45.392-.135v-19.584h-45.392v-17.692h50.284v-19.719zm73.116 0h-25.55l-40.907 94.676h25.55l6.66-16.747h41.178l6.524 16.747h26.5l-39.955-94.676zm115.11 0h-81.677v20.394h28.267v74.282h24.87V530.71h28.54v-20.394zm-128.564 25.256l13.047 33.765h-26.366l13.319-33.765z"/></g></svg>